# xmcd
#
# Track frame offsets: 
#        150
#        20604
#        35831
#        53731
#        68561
#        88199
#        129349
#        152966
#        171096
#        186849
#        203316
#        216659
#        237599
#        260191
#
# Disc length: 3978 seconds
#
# Revision: 5
# Processed by: cddbd v1.5.2PL0 Copyright (c) Steve Scherf et al.
# Submitted via: ExactAudioCopy v0.99pb4
#
DISCID=cf0f880e
DTITLE=Bob Walsh - A Canadian Blues Rendez-vous
DYEAR=2004
DGENRE=Blues
TTITLE0=Bob Walsh - I Don't Need No Doctor
TTITLE1=Bob Walsh - Teeny Weeny Bit
TTITLE2=Bob Walsh w Jimmy Bowskill - Honey Bee
TTITLE3=Bob Walsh w Jack De Keyzer - Jump Right To It
TTITLE4=Bob Walsh - Stand By Me
TTITLE5=Bob Walsh - Loan Me a Dime
TTITLE6=Bob Walsh w Dawn Tyler Watson and David Gogo - Purple Haze
TTITLE7=Bob Walsh w Martin Deschamps - Will it Go Round in Circles
TTITLE8=Bob Walsh w Glamour Puss - Boom Boom
TTITLE9=Bob Walsh - Spinning Wheel
TTITLE10=Bob Walsh w David Gogo - Signed, Sealed, Delivered I'm Yours
TTITLE11=Bob Walsh w Martin Deschamps and Breen LeBoeuf - Mes Blues Pass
TTITLE11=ent Pu Dans Porte
TTITLE12=Bob Walsh, Martin Deschamps and Breen LeBoeuf - How Sweet It Is
TTITLE12=(To Be Loved By You)
TTITLE13=Bob Walsh w Sylvie Desgroseilliers - Summertime
EXTD=
EXTT0=
EXTT1=
EXTT2=
EXTT3=
EXTT4=
EXTT5=
EXTT6=
EXTT7=
EXTT8=
EXTT9=
EXTT10=
EXTT11=
EXTT12=
EXTT13=
PLAYORDER=
